<svg width="1200" height="330" viewBox="0 0 1200 330" xmlns="http://www.w3.org/2000/svg">
<defs>
 <linearGradient id="bg" x1="0" y1="0" x2="1" y2="1"><stop offset="0" stop-color="#050816"/><stop offset="1" stop-color="#111827"/></linearGradient>
 <filter id="glow"><feGaussianBlur stdDeviation="4" result="b"/><feMerge><feMergeNode in="b"/><feMergeNode in="SourceGraphic"/></feMerge></filter>
</defs>
<rect width="1200" height="330" rx="24" fill="url(#bg)"/>
<g opacity=".16" stroke="#60a5fa"><path d="M0 60H1200M0 120H1200M0 180H1200M0 240H1200M0 300H1200"/><path d="M120 0V330M240 0V330M360 0V330M480 0V330M600 0V330M720 0V330M840 0V330M960 0V330M1080 0V330"/></g>
<text x="60" y="65" fill="#f8fafc" font-family="monospace" font-size="28" font-weight="700">VIVEK // ENGINEERING LAB</text>
<text x="60" y="95" fill="#94a3b8" font-family="monospace" font-size="14">JAVA × AI × FULL STACK × SECURITY</text>
<path id="route" d="M120 180 C280 70 390 70 520 180 S760 290 900 180 S1050 70 1120 150" fill="none" stroke="#334155" stroke-width="3"/>
<g filter="url(#glow)"><circle cx="120" cy="180" r="28" fill="#0f172a" stroke="#60a5fa" stroke-width="2"/><circle cx="520" cy="180" r="28" fill="#0f172a" stroke="#a78bfa" stroke-width="2"/><circle cx="900" cy="180" r="28" fill="#0f172a" stroke="#34d399" stroke-width="2"/><circle cx="1120" cy="150" r="28" fill="#0f172a" stroke="#f59e0b" stroke-width="2"/></g>
<g fill="#e2e8f0" font-family="monospace" font-size="13" text-anchor="middle"><text x="120" y="185">JAVA</text><text x="520" y="185">API</text><text x="900" y="185">RAG</text><text x="1120" y="155">AI</text></g>
<g fill="#60a5fa" filter="url(#glow)">
<circle r="5"><animateMotion dur="3s" repeatCount="indefinite" href="#route"/></circle>
<circle r="4"><animateMotion dur="3s" begin="1s" repeatCount="indefinite" href="#route"/></circle>
<circle r="3"><animateMotion dur="3s" begin="2s" repeatCount="indefinite" href="#route"/></circle>
</g>
<g font-family="monospace" font-size="12" fill="#64748b"><text x="80" y="285">REQUEST</text><text x="330" y="285">PROCESS</text><text x="650" y="285">RETRIEVE</text><text x="980" y="285">GENERATE</text></g>
</svg>